<mxfile host="Electron" modified="2024-03-03T20:33:54.276Z" agent="Mozilla/5.0 (Windows NT 10.0; Win64; x64) AppleWebKit/537.36 (KHTML, like Gecko) draw.io/23.1.5 Chrome/120.0.6099.109 Electron/28.1.0 Safari/537.36" etag="2bEgEuB8iLDwPYfjlHGM" version="23.1.5" type="device">
  <diagram name="Page-1" id="7On98ZiMvdwNjJIYapZy">
    <mxGraphModel dx="1067" dy="499" grid="1" gridSize="10" guides="1" tooltips="1" connect="1" arrows="1" fold="1" page="1" pageScale="1" pageWidth="850" pageHeight="1100" math="0" shadow="0">
      <root>
        <mxCell id="0" />
        <mxCell id="1" parent="0" />
        <mxCell id="__wLUkGooVmf2jaJYb_k-1" value="Library 1" style="ellipse;whiteSpace=wrap;html=1;" parent="1" vertex="1">
          <mxGeometry x="376" y="220" width="120" height="40" as="geometry" />
        </mxCell>
        <mxCell id="__wLUkGooVmf2jaJYb_k-2" value="Membership 1" style="ellipse;whiteSpace=wrap;html=1;" parent="1" vertex="1">
          <mxGeometry x="270" y="320" width="120" height="40" as="geometry" />
        </mxCell>
        <mxCell id="__wLUkGooVmf2jaJYb_k-3" value="Membership 2" style="ellipse;whiteSpace=wrap;html=1;" parent="1" vertex="1">
          <mxGeometry x="440" y="320" width="120" height="40" as="geometry" />
        </mxCell>
        <mxCell id="__wLUkGooVmf2jaJYb_k-5" value="Paid User 1" style="ellipse;whiteSpace=wrap;html=1;" parent="1" vertex="1">
          <mxGeometry x="270" y="420" width="120" height="40" as="geometry" />
        </mxCell>
        <mxCell id="__wLUkGooVmf2jaJYb_k-6" value="Paid user 2" style="ellipse;whiteSpace=wrap;html=1;" parent="1" vertex="1">
          <mxGeometry x="450" y="420" width="120" height="40" as="geometry" />
        </mxCell>
        <mxCell id="__wLUkGooVmf2jaJYb_k-8" value="" style="endArrow=none;html=1;rounded=0;entryX=0.5;entryY=1;entryDx=0;entryDy=0;exitX=0.5;exitY=0;exitDx=0;exitDy=0;" parent="1" target="__wLUkGooVmf2jaJYb_k-2" edge="1" source="__wLUkGooVmf2jaJYb_k-5">
          <mxGeometry width="50" height="50" relative="1" as="geometry">
            <mxPoint x="250" y="420" as="sourcePoint" />
            <mxPoint x="310" y="360" as="targetPoint" />
          </mxGeometry>
        </mxCell>
        <mxCell id="__wLUkGooVmf2jaJYb_k-9" value="" style="endArrow=none;html=1;rounded=0;entryX=0.5;entryY=1;entryDx=0;entryDy=0;exitX=0.5;exitY=0;exitDx=0;exitDy=0;" parent="1" source="__wLUkGooVmf2jaJYb_k-6" target="__wLUkGooVmf2jaJYb_k-3" edge="1">
          <mxGeometry width="50" height="50" relative="1" as="geometry">
            <mxPoint x="420" y="420" as="sourcePoint" />
            <mxPoint x="470" y="370" as="targetPoint" />
          </mxGeometry>
        </mxCell>
        <mxCell id="__wLUkGooVmf2jaJYb_k-11" value="" style="endArrow=none;html=1;rounded=0;entryX=0.408;entryY=1.025;entryDx=0;entryDy=0;entryPerimeter=0;exitX=0.5;exitY=0;exitDx=0;exitDy=0;" parent="1" source="__wLUkGooVmf2jaJYb_k-2" target="__wLUkGooVmf2jaJYb_k-1" edge="1">
          <mxGeometry width="50" height="50" relative="1" as="geometry">
            <mxPoint x="450" y="530" as="sourcePoint" />
            <mxPoint x="370" y="270" as="targetPoint" />
          </mxGeometry>
        </mxCell>
        <mxCell id="__wLUkGooVmf2jaJYb_k-12" value="" style="endArrow=none;html=1;rounded=0;entryX=0.5;entryY=1;entryDx=0;entryDy=0;exitX=0.5;exitY=0;exitDx=0;exitDy=0;" parent="1" source="__wLUkGooVmf2jaJYb_k-3" target="__wLUkGooVmf2jaJYb_k-1" edge="1">
          <mxGeometry width="50" height="50" relative="1" as="geometry">
            <mxPoint x="460" y="330" as="sourcePoint" />
            <mxPoint x="510" y="280" as="targetPoint" />
          </mxGeometry>
        </mxCell>
      </root>
    </mxGraphModel>
  </diagram>
</mxfile>
